<svg xmlns="http://www.w3.org/2000/svg" width="121.94" height="35" viewBox="0 0 121.94 35"><rect class="svg__rect" x="0" y="0" width="121.94" height="35" fill="#EA4560" style="--darkreader-inline-fill: #9d1229;" data-darkreader-inline-fill=""/><rect class="svg__rect" x="121.94" y="0" width="0" height="35" fill="#389AD5" style="--darkreader-inline-fill: #2272a2;" data-darkreader-inline-fill=""/><path class="svg__text" d="M15.00 22L13.46 22L16.68 13.47L18.01 13.47L21.24 22L19.69 22L18.99 20.01L15.69 20.01L15.00 22ZM17.34 15.28L16.10 18.82L18.58 18.82L17.34 15.28ZM24.76 19.42L24.76 19.42L26.24 19.42Q26.24 20.15 26.72 20.55Q27.20 20.95 28.10 20.95L28.10 20.95Q28.87 20.95 29.26 20.63Q29.65 20.32 29.65 19.80L29.65 19.80Q29.65 19.24 29.26 18.94Q28.86 18.63 27.83 18.32Q26.80 18.01 26.19 17.63L26.19 17.63Q25.02 16.90 25.02 15.72L25.02 15.72Q25.02 14.69 25.86 14.02Q26.70 13.35 28.05 13.35L28.05 13.35Q28.94 13.35 29.63 13.68Q30.33 14.01 30.73 14.61Q31.13 15.22 31.13 15.96L31.13 15.96L29.65 15.96Q29.65 15.29 29.23 14.91Q28.81 14.54 28.03 14.54L28.03 14.54Q27.31 14.54 26.91 14.85Q26.50 15.16 26.50 15.71L26.50 15.71Q26.50 16.18 26.94 16.50Q27.37 16.81 28.37 17.10Q29.36 17.40 29.97 17.78Q30.57 18.16 30.85 18.65Q31.13 19.13 31.13 19.79L31.13 19.79Q31.13 20.86 30.32 21.49Q29.50 22.12 28.10 22.12L28.10 22.12Q27.17 22.12 26.40 21.77Q25.62 21.43 25.19 20.83Q24.76 20.22 24.76 19.42ZM37.10 14.66L34.47 14.66L34.47 13.47L41.23 13.47L41.23 14.66L38.57 14.66L38.57 22L37.10 22L37.10 14.66ZM46.47 22L44.99 22L44.99 13.47L47.99 13.47Q49.47 13.47 50.27 14.13Q51.07 14.79 51.07 16.05L51.07 16.05Q51.07 16.90 50.66 17.48Q50.25 18.06 49.51 18.37L49.51 18.37L51.42 21.92L51.42 22L49.84 22L48.13 18.71L46.47 18.71L46.47 22ZM46.47 14.66L46.47 17.52L48.00 17.52Q48.75 17.52 49.17 17.15Q49.59 16.77 49.59 16.11L49.59 16.11Q49.59 15.43 49.20 15.05Q48.81 14.68 48.04 14.66L48.04 14.66L46.47 14.66ZM55.20 18.00L55.20 18.00L55.20 17.52Q55.20 16.28 55.64 15.32Q56.08 14.37 56.89 13.86Q57.69 13.35 58.74 13.35Q59.78 13.35 60.59 13.85Q61.39 14.35 61.83 15.29Q62.27 16.23 62.28 17.48L62.28 17.48L62.28 17.96Q62.28 19.21 61.84 20.16Q61.41 21.10 60.60 21.61Q59.80 22.12 58.75 22.12L58.75 22.12Q57.71 22.12 56.90 21.61Q56.09 21.10 55.65 20.17Q55.20 19.23 55.20 18.00ZM56.68 17.46L56.68 17.96Q56.68 19.36 57.23 20.13Q57.78 20.90 58.75 20.90L58.75 20.90Q59.73 20.90 60.26 20.15Q60.79 19.40 60.79 17.96L60.79 17.96L60.79 17.51Q60.79 16.09 60.26 15.34Q59.72 14.58 58.74 14.58L58.74 14.58Q57.78 14.58 57.23 15.33Q56.69 16.09 56.68 17.46L56.68 17.46ZM68.22 22L66.74 22L66.74 13.47L68.22 13.47L72.04 19.54L72.04 13.47L73.51 13.47L73.51 22L72.03 22L68.22 15.95L68.22 22ZM77.98 18.00L77.98 18.00L77.98 17.52Q77.98 16.28 78.42 15.32Q78.86 14.37 79.67 13.86Q80.47 13.35 81.52 13.35Q82.56 13.35 83.37 13.85Q84.17 14.35 84.61 15.29Q85.05 16.23 85.06 17.48L85.06 17.48L85.06 17.96Q85.06 19.21 84.62 20.16Q84.19 21.10 83.38 21.61Q82.58 22.12 81.53 22.12L81.53 22.12Q80.49 22.12 79.68 21.61Q78.87 21.10 78.43 20.17Q77.98 19.23 77.98 18.00ZM79.46 17.46L79.46 17.96Q79.46 19.36 80.01 20.13Q80.56 20.90 81.53 20.90L81.53 20.90Q82.51 20.90 83.04 20.15Q83.57 19.40 83.57 17.96L83.57 17.96L83.57 17.51Q83.57 16.09 83.04 15.34Q82.50 14.58 81.52 14.58L81.52 14.58Q80.56 14.58 80.02 15.33Q79.47 16.09 79.46 17.46L79.46 17.46ZM91.00 22L89.52 22L89.52 13.47L91.44 13.47L93.90 20.01L96.36 13.47L98.28 13.47L98.28 22L96.80 22L96.80 19.19L96.95 15.43L94.43 22L93.37 22L90.85 15.43L91.00 19.19L91.00 22ZM105.06 18.86L102.19 13.47L103.84 13.47L105.80 17.51L107.76 13.47L109.40 13.47L106.54 18.86L106.54 22L105.06 22L105.06 18.86Z" fill="#FFFFFF" style="--darkreader-inline-fill: #181a1b;" data-darkreader-inline-fill=""/><path class="svg__text" d="" fill="#FFFFFF" x="134.94" style="--darkreader-inline-fill: #181a1b;" data-darkreader-inline-fill=""/></svg>