<svg xmlns="http://www.w3.org/2000/svg" width="178.16" height="35" viewBox="0 0 178.16 35"><rect class="svg__rect" x="0" y="0" width="64.75" height="35" fill="#31C4F3" style="--darkreader-inline-fill: #0a85ac;" data-darkreader-inline-fill=""/><rect class="svg__rect" x="62.75" y="0" width="115.41" height="35" fill="#389AD5" style="--darkreader-inline-fill: #2272a2;" data-darkreader-inline-fill=""/><path class="svg__text" d="M16.67 22L14.22 22L14.22 13.47L16.74 13.47Q17.87 13.47 18.74 13.97Q19.62 14.48 20.10 15.40Q20.58 16.33 20.58 17.52L20.58 17.52L20.58 17.95Q20.58 19.16 20.10 20.08Q19.61 21.00 18.72 21.50Q17.83 22 16.67 22L16.67 22ZM15.70 14.66L15.70 20.82L16.67 20.82Q17.83 20.82 18.46 20.09Q19.08 19.36 19.09 17.99L19.09 17.99L19.09 17.52Q19.09 16.13 18.49 15.40Q17.89 14.66 16.74 14.66L16.74 14.66L15.70 14.66ZM30.62 22L25.05 22L25.05 13.47L30.58 13.47L30.58 14.66L26.53 14.66L26.53 17.02L30.03 17.02L30.03 18.19L26.53 18.19L26.53 20.82L30.62 20.82L30.62 22ZM40.40 22L34.82 22L34.82 13.47L40.36 13.47L40.36 14.66L36.30 14.66L36.30 17.02L39.81 17.02L39.81 18.19L36.30 18.19L36.30 20.82L40.40 20.82L40.40 22ZM46.07 22L44.59 22L44.59 13.47L47.86 13.47Q49.29 13.47 50.13 14.21Q50.97 14.96 50.97 16.18L50.97 16.18Q50.97 17.44 50.14 18.13Q49.32 18.83 47.84 18.83L47.84 18.83L46.07 18.83L46.07 22ZM46.07 14.66L46.07 17.64L47.86 17.64Q48.65 17.64 49.06 17.27Q49.48 16.90 49.48 16.19L49.48 16.19Q49.48 15.50 49.06 15.09Q48.64 14.68 47.90 14.66L47.90 14.66L46.07 14.66Z" fill="#FFFFFF" style="--darkreader-inline-fill: #181a1b;" data-darkreader-inline-fill=""/><path class="svg__text" d="M83.32 22L76.94 22L76.94 13.60L79.32 13.60L79.32 20.11L83.32 20.11L83.32 22ZM94.49 22L87.74 22L87.74 13.60L94.33 13.60L94.33 15.44L90.10 15.44L90.10 16.85L93.83 16.85L93.83 18.63L90.10 18.63L90.10 20.17L94.49 20.17L94.49 22ZM100.71 22L98.28 22L101.99 13.60L104.34 13.60L108.05 22L105.58 22L104.92 20.37L101.37 20.37L100.71 22ZM103.15 15.93L102.06 18.61L104.22 18.61L103.15 15.93ZM114.58 22L112.21 22L112.21 13.60L116.05 13.60Q117.19 13.60 118.03 13.98Q118.87 14.35 119.32 15.06Q119.78 15.76 119.78 16.71L119.78 16.71Q119.78 17.62 119.35 18.30Q118.93 18.98 118.14 19.36L118.14 19.36L119.95 22L117.40 22L115.88 19.77L114.58 19.77L114.58 22ZM114.58 15.47L114.58 17.93L115.90 17.93Q116.64 17.93 117.01 17.61Q117.38 17.29 117.38 16.71L117.38 16.71Q117.38 16.12 117.01 15.79Q116.64 15.47 115.90 15.47L115.90 15.47L114.58 15.47ZM126.90 22L124.57 22L124.57 13.60L126.53 13.60L130.23 18.07L130.23 13.60L132.56 13.60L132.56 22L130.61 22L126.90 17.52L126.90 22ZM140.10 22L137.72 22L137.72 13.60L140.10 13.60L140.10 22ZM147.61 22L145.28 22L145.28 13.60L147.23 13.60L150.94 18.07L150.94 13.60L153.27 13.60L153.27 22L151.32 22L147.61 17.52L147.61 22ZM158.00 17.80L158.00 17.80Q158.00 16.54 158.60 15.54Q159.20 14.55 160.27 13.99Q161.34 13.43 162.68 13.43L162.68 13.43Q163.86 13.43 164.79 13.83Q165.73 14.22 166.35 14.97L166.35 14.97L164.84 16.33Q164.00 15.40 162.82 15.40L162.82 15.40Q162.81 15.40 162.80 15.40L162.80 15.40Q161.72 15.40 161.06 16.06Q160.40 16.71 160.40 17.80L160.40 17.80Q160.40 18.50 160.70 19.04Q161.00 19.59 161.54 19.89Q162.08 20.20 162.78 20.20L162.78 20.20Q163.46 20.20 164.06 19.93L164.06 19.93L164.06 17.62L166.16 17.62L166.16 21.10Q165.44 21.61 164.50 21.89Q163.57 22.17 162.63 22.17L162.63 22.17Q161.31 22.17 160.26 21.61Q159.20 21.05 158.60 20.05Q158.00 19.06 158.00 17.80Z" fill="#FFFFFF" x="75.75" style="--darkreader-inline-fill: #181a1b;" data-darkreader-inline-fill=""/></svg>